<svg xmlns="http://www.w3.org/2000/svg" version="1.1" xmlnsXlink="http://www.w3.org/1999/xlink" xmlnsSvgjs="http://svgjs.com/svgjs" width="1000" height="1000" preserveAspectRatio="none" viewBox="0 0 1000 1000">
    <g mask="url(&quot;#SvgjsMask1009&quot;)" fill="none">
        <rect width="1000" height="1000" x="0" y="0" fill="rgba(66, 103, 178, 1)"></rect>
        <path d="M0,493.097C92.326,499.036,178.774,448.956,253.262,394.084C324.567,341.556,395.485,275.478,413.205,188.705C430.09,106.022,359.255,33.532,343.836,-49.436C329.322,-127.534,374.866,-219.828,325.687,-282.209C276.594,-344.481,181.527,-337.688,103.886,-353.802C32.57,-368.603,-36.804,-378.683,-109.378,-372.506C-197.44,-365.01,-296.14,-372.483,-362.496,-314.105C-430.438,-254.331,-469.425,-155.605,-457.948,-65.843C-446.902,20.544,-344.999,61.956,-304.55,139.083C-267.443,209.837,-285.257,302.227,-233.153,362.793C-173.89,431.681,-90.685,487.263,0,493.097" fill="#35528e"></path>
        <path d="M1000 1405.38C1074.983 1400.1019999999999 1137.007 1352.201 1199.484 1310.404 1260.857 1269.346 1324.254 1229.005 1360.122 1164.462 1397.625 1096.976 1417.066 1018.013 1404.283 941.873 1391.636 866.546 1332.883 811.867 1290.28 748.471 1241.063 675.233 1214.535 578.6949999999999 1134.811 540.877 1052.527 501.845 951.61 513.5509999999999 867.218 547.7860000000001 786.525 580.521 735.557 655.797 682.092 724.531 631.2719999999999 789.864 581.5550000000001 856.4110000000001 564.201 937.342 546.073 1021.884 541.008 1114.773 582.102 1190.847 622.364 1265.3809999999999 706.25 1301.129 781.613 1339.817 850.627 1375.246 922.614 1410.827 1000 1405.38" fill="#6182c4"></path>
    </g>
    <defs>
        <mask id="SvgjsMask1009">
            <rect width="1000" height="1000" fill="#ffffff"></rect>
        </mask>
    </defs>
</svg>